G04 EAGLE Gerber RS-274X export*
G75*
%MOMM*%
%FSLAX34Y34*%
%LPD*%
%INSoldermask Bottom*%
%IPPOS*%
%AMOC8*
5,1,8,0,0,1.08239X$1,22.5*%
G01*
%ADD10C,3.453200*%
%ADD11P,1.843527X8X112.500000*%
%ADD12P,1.843527X8X202.500000*%
%ADD13P,1.843527X8X22.500000*%
%ADD14C,1.524000*%
%ADD15C,2.153200*%
%ADD16P,2.034460X8X202.500000*%
%ADD17P,1.767759X8X112.500000*%
%ADD18C,1.879600*%
%ADD19P,1.767759X8X202.500000*%
%ADD20P,1.767759X8X292.500000*%
%ADD21P,1.767759X8X22.500000*%
%ADD22C,1.727200*%


D10*
X410000Y200000D03*
X125000Y200000D03*
X695000Y200000D03*
D11*
X473000Y294600D03*
X473000Y345400D03*
D12*
X625400Y160000D03*
X574600Y160000D03*
D13*
X295600Y310000D03*
X346400Y310000D03*
D12*
X375400Y160000D03*
X324600Y160000D03*
D14*
X638900Y261496D02*
X638900Y274704D01*
X613500Y274704D02*
X613500Y261496D01*
X486500Y261496D02*
X486500Y274704D01*
X461100Y274704D02*
X461100Y261496D01*
X588100Y261496D02*
X588100Y274704D01*
X562700Y274704D02*
X562700Y261496D01*
X511900Y261496D02*
X511900Y274704D01*
X537300Y274704D02*
X537300Y261496D01*
X461100Y198504D02*
X461100Y185296D01*
X486500Y185296D02*
X486500Y198504D01*
X511900Y198504D02*
X511900Y185296D01*
X537300Y185296D02*
X537300Y198504D01*
X562700Y198504D02*
X562700Y185296D01*
X588100Y185296D02*
X588100Y198504D01*
X613500Y198504D02*
X613500Y185296D01*
X638900Y185296D02*
X638900Y198504D01*
X358900Y261496D02*
X358900Y274704D01*
X333500Y274704D02*
X333500Y261496D01*
X206500Y261496D02*
X206500Y274704D01*
X181100Y274704D02*
X181100Y261496D01*
X308100Y261496D02*
X308100Y274704D01*
X282700Y274704D02*
X282700Y261496D01*
X231900Y261496D02*
X231900Y274704D01*
X257300Y274704D02*
X257300Y261496D01*
X181100Y198504D02*
X181100Y185296D01*
X206500Y185296D02*
X206500Y198504D01*
X231900Y198504D02*
X231900Y185296D01*
X257300Y185296D02*
X257300Y198504D01*
X282700Y198504D02*
X282700Y185296D01*
X308100Y185296D02*
X308100Y198504D01*
X333500Y198504D02*
X333500Y185296D01*
X358900Y185296D02*
X358900Y198504D01*
D15*
X780000Y327500D03*
X780000Y292500D03*
X647500Y40000D03*
X612500Y40000D03*
X207500Y40000D03*
X172500Y40000D03*
X172500Y360000D03*
X207500Y360000D03*
X612500Y360000D03*
X647500Y360000D03*
X40000Y292500D03*
X40000Y327500D03*
X40000Y222500D03*
X40000Y257500D03*
D16*
X527700Y347000D03*
X502300Y347000D03*
D17*
X720000Y259200D03*
X720000Y360800D03*
D18*
X800000Y100000D03*
X800000Y125400D03*
X800000Y74600D03*
D14*
X575100Y121496D02*
X575100Y134704D01*
X549700Y134704D02*
X549700Y121496D01*
X524300Y121496D02*
X524300Y134704D01*
X498900Y134704D02*
X498900Y121496D01*
X473500Y121496D02*
X473500Y134704D01*
X448100Y134704D02*
X448100Y121496D01*
X422700Y121496D02*
X422700Y134704D01*
X397300Y134704D02*
X397300Y121496D01*
X371900Y121496D02*
X371900Y134704D01*
X346500Y134704D02*
X346500Y121496D01*
X321100Y121496D02*
X321100Y134704D01*
X295700Y134704D02*
X295700Y121496D01*
X270300Y121496D02*
X270300Y134704D01*
X244900Y134704D02*
X244900Y121496D01*
X244900Y58504D02*
X244900Y45296D01*
X270300Y45296D02*
X270300Y58504D01*
X295700Y58504D02*
X295700Y45296D01*
X321100Y45296D02*
X321100Y58504D01*
X346500Y58504D02*
X346500Y45296D01*
X371900Y45296D02*
X371900Y58504D01*
X397300Y58504D02*
X397300Y45296D01*
X422700Y45296D02*
X422700Y58504D01*
X448100Y58504D02*
X448100Y45296D01*
X473500Y45296D02*
X473500Y58504D01*
X498900Y58504D02*
X498900Y45296D01*
X524300Y45296D02*
X524300Y58504D01*
X549700Y58504D02*
X549700Y45296D01*
X575100Y45296D02*
X575100Y58504D01*
D19*
X530800Y20000D03*
X429200Y20000D03*
D12*
X395400Y20000D03*
X344600Y20000D03*
D15*
X40000Y82500D03*
X40000Y117500D03*
X40000Y152500D03*
X40000Y187500D03*
D17*
X692000Y259200D03*
X692000Y360800D03*
D20*
X430000Y350800D03*
X430000Y249200D03*
D21*
X619200Y140000D03*
X720800Y140000D03*
X449200Y160000D03*
X550800Y160000D03*
D20*
X390000Y350800D03*
X390000Y249200D03*
D21*
X239200Y350000D03*
X340800Y350000D03*
D19*
X300800Y160000D03*
X199200Y160000D03*
X136800Y32000D03*
X35200Y32000D03*
D22*
X772380Y187300D02*
X787620Y187300D01*
X787620Y212700D02*
X772380Y212700D01*
X572700Y302380D02*
X572700Y317620D01*
X547300Y317620D02*
X547300Y302380D01*
X272700Y302380D02*
X272700Y317620D01*
X247300Y317620D02*
X247300Y302380D01*
X617300Y117620D02*
X617300Y102380D01*
X642700Y102380D02*
X642700Y117620D01*
X177300Y117620D02*
X177300Y102380D01*
X202700Y102380D02*
X202700Y117620D01*
X127620Y145400D02*
X112380Y145400D01*
X112380Y120000D02*
X127620Y120000D01*
X127620Y94600D02*
X112380Y94600D01*
X112380Y251900D02*
X127620Y251900D01*
X127620Y277300D02*
X112380Y277300D01*
X112380Y302700D02*
X127620Y302700D01*
X127620Y328100D02*
X112380Y328100D01*
M02*
