G04 EAGLE Gerber RS-274X export*
G75*
%MOMM*%
%FSLAX34Y34*%
%LPD*%
%INSoldermask Top*%
%IPPOS*%
%AMOC8*
5,1,8,0,0,1.08239X$1,22.5*%
G01*
%ADD10C,3.453200*%
%ADD11P,1.843527X8X112.500000*%
%ADD12P,1.843527X8X202.500000*%
%ADD13P,1.843527X8X22.500000*%
%ADD14C,1.524000*%
%ADD15C,2.153200*%
%ADD16P,2.034460X8X202.500000*%
%ADD17P,1.767759X8X112.500000*%
%ADD18C,1.879600*%
%ADD19P,1.767759X8X202.500000*%
%ADD20P,1.767759X8X292.500000*%
%ADD21P,1.767759X8X22.500000*%
%ADD22C,1.727200*%

G36*
X650020Y199242D02*
X650020Y199242D01*
X650039Y199240D01*
X650141Y199262D01*
X650243Y199279D01*
X650260Y199288D01*
X650280Y199292D01*
X650369Y199345D01*
X650460Y199394D01*
X650474Y199408D01*
X650491Y199418D01*
X650558Y199497D01*
X650630Y199572D01*
X650638Y199590D01*
X650651Y199605D01*
X650690Y199701D01*
X650733Y199795D01*
X650735Y199815D01*
X650743Y199833D01*
X650761Y200000D01*
X650761Y260000D01*
X650758Y260020D01*
X650760Y260039D01*
X650738Y260141D01*
X650722Y260243D01*
X650712Y260260D01*
X650708Y260280D01*
X650655Y260369D01*
X650606Y260460D01*
X650592Y260474D01*
X650582Y260491D01*
X650503Y260558D01*
X650428Y260630D01*
X650410Y260638D01*
X650395Y260651D01*
X650299Y260690D01*
X650205Y260733D01*
X650185Y260735D01*
X650167Y260743D01*
X650000Y260761D01*
X450000Y260761D01*
X449980Y260758D01*
X449961Y260760D01*
X449859Y260738D01*
X449757Y260722D01*
X449740Y260712D01*
X449720Y260708D01*
X449631Y260655D01*
X449540Y260606D01*
X449526Y260592D01*
X449509Y260582D01*
X449442Y260503D01*
X449371Y260428D01*
X449362Y260410D01*
X449349Y260395D01*
X449310Y260299D01*
X449267Y260205D01*
X449265Y260185D01*
X449257Y260167D01*
X449239Y260000D01*
X449239Y200000D01*
X449242Y199980D01*
X449240Y199961D01*
X449262Y199859D01*
X449279Y199757D01*
X449288Y199740D01*
X449292Y199720D01*
X449345Y199631D01*
X449394Y199540D01*
X449408Y199526D01*
X449418Y199509D01*
X449497Y199442D01*
X449572Y199371D01*
X449590Y199362D01*
X449605Y199349D01*
X449701Y199310D01*
X449795Y199267D01*
X449815Y199265D01*
X449833Y199257D01*
X450000Y199239D01*
X650000Y199239D01*
X650020Y199242D01*
G37*
G36*
X370020Y199242D02*
X370020Y199242D01*
X370039Y199240D01*
X370141Y199262D01*
X370243Y199279D01*
X370260Y199288D01*
X370280Y199292D01*
X370369Y199345D01*
X370460Y199394D01*
X370474Y199408D01*
X370491Y199418D01*
X370558Y199497D01*
X370630Y199572D01*
X370638Y199590D01*
X370651Y199605D01*
X370690Y199701D01*
X370733Y199795D01*
X370735Y199815D01*
X370743Y199833D01*
X370761Y200000D01*
X370761Y260000D01*
X370758Y260020D01*
X370760Y260039D01*
X370738Y260141D01*
X370722Y260243D01*
X370712Y260260D01*
X370708Y260280D01*
X370655Y260369D01*
X370606Y260460D01*
X370592Y260474D01*
X370582Y260491D01*
X370503Y260558D01*
X370428Y260630D01*
X370410Y260638D01*
X370395Y260651D01*
X370299Y260690D01*
X370205Y260733D01*
X370185Y260735D01*
X370167Y260743D01*
X370000Y260761D01*
X170000Y260761D01*
X169980Y260758D01*
X169961Y260760D01*
X169859Y260738D01*
X169757Y260722D01*
X169740Y260712D01*
X169720Y260708D01*
X169631Y260655D01*
X169540Y260606D01*
X169526Y260592D01*
X169509Y260582D01*
X169442Y260503D01*
X169371Y260428D01*
X169362Y260410D01*
X169349Y260395D01*
X169310Y260299D01*
X169267Y260205D01*
X169265Y260185D01*
X169257Y260167D01*
X169239Y260000D01*
X169239Y200000D01*
X169242Y199980D01*
X169240Y199961D01*
X169262Y199859D01*
X169279Y199757D01*
X169288Y199740D01*
X169292Y199720D01*
X169345Y199631D01*
X169394Y199540D01*
X169408Y199526D01*
X169418Y199509D01*
X169497Y199442D01*
X169572Y199371D01*
X169590Y199362D01*
X169605Y199349D01*
X169701Y199310D01*
X169795Y199267D01*
X169815Y199265D01*
X169833Y199257D01*
X170000Y199239D01*
X370000Y199239D01*
X370020Y199242D01*
G37*
D10*
X410000Y200000D03*
X125000Y200000D03*
X695000Y200000D03*
D11*
X473000Y294600D03*
X473000Y345400D03*
D12*
X625400Y160000D03*
X574600Y160000D03*
D13*
X295600Y310000D03*
X346400Y310000D03*
D12*
X375400Y160000D03*
X324600Y160000D03*
D14*
X638900Y261496D02*
X638900Y274704D01*
X613500Y274704D02*
X613500Y261496D01*
X486500Y261496D02*
X486500Y274704D01*
X461100Y274704D02*
X461100Y261496D01*
X588100Y261496D02*
X588100Y274704D01*
X562700Y274704D02*
X562700Y261496D01*
X511900Y261496D02*
X511900Y274704D01*
X537300Y274704D02*
X537300Y261496D01*
X461100Y198504D02*
X461100Y185296D01*
X486500Y185296D02*
X486500Y198504D01*
X511900Y198504D02*
X511900Y185296D01*
X537300Y185296D02*
X537300Y198504D01*
X562700Y198504D02*
X562700Y185296D01*
X588100Y185296D02*
X588100Y198504D01*
X613500Y198504D02*
X613500Y185296D01*
X638900Y185296D02*
X638900Y198504D01*
X358900Y261496D02*
X358900Y274704D01*
X333500Y274704D02*
X333500Y261496D01*
X206500Y261496D02*
X206500Y274704D01*
X181100Y274704D02*
X181100Y261496D01*
X308100Y261496D02*
X308100Y274704D01*
X282700Y274704D02*
X282700Y261496D01*
X231900Y261496D02*
X231900Y274704D01*
X257300Y274704D02*
X257300Y261496D01*
X181100Y198504D02*
X181100Y185296D01*
X206500Y185296D02*
X206500Y198504D01*
X231900Y198504D02*
X231900Y185296D01*
X257300Y185296D02*
X257300Y198504D01*
X282700Y198504D02*
X282700Y185296D01*
X308100Y185296D02*
X308100Y198504D01*
X333500Y198504D02*
X333500Y185296D01*
X358900Y185296D02*
X358900Y198504D01*
D15*
X780000Y327500D03*
X780000Y292500D03*
X647500Y40000D03*
X612500Y40000D03*
X207500Y40000D03*
X172500Y40000D03*
X172500Y360000D03*
X207500Y360000D03*
X612500Y360000D03*
X647500Y360000D03*
X40000Y292500D03*
X40000Y327500D03*
X40000Y222500D03*
X40000Y257500D03*
D16*
X527700Y347000D03*
X502300Y347000D03*
D17*
X720000Y259200D03*
X720000Y360800D03*
D18*
X800000Y100000D03*
X800000Y125400D03*
X800000Y74600D03*
D14*
X575100Y121496D02*
X575100Y134704D01*
X549700Y134704D02*
X549700Y121496D01*
X524300Y121496D02*
X524300Y134704D01*
X498900Y134704D02*
X498900Y121496D01*
X473500Y121496D02*
X473500Y134704D01*
X448100Y134704D02*
X448100Y121496D01*
X422700Y121496D02*
X422700Y134704D01*
X397300Y134704D02*
X397300Y121496D01*
X371900Y121496D02*
X371900Y134704D01*
X346500Y134704D02*
X346500Y121496D01*
X321100Y121496D02*
X321100Y134704D01*
X295700Y134704D02*
X295700Y121496D01*
X270300Y121496D02*
X270300Y134704D01*
X244900Y134704D02*
X244900Y121496D01*
X244900Y58504D02*
X244900Y45296D01*
X270300Y45296D02*
X270300Y58504D01*
X295700Y58504D02*
X295700Y45296D01*
X321100Y45296D02*
X321100Y58504D01*
X346500Y58504D02*
X346500Y45296D01*
X371900Y45296D02*
X371900Y58504D01*
X397300Y58504D02*
X397300Y45296D01*
X422700Y45296D02*
X422700Y58504D01*
X448100Y58504D02*
X448100Y45296D01*
X473500Y45296D02*
X473500Y58504D01*
X498900Y58504D02*
X498900Y45296D01*
X524300Y45296D02*
X524300Y58504D01*
X549700Y58504D02*
X549700Y45296D01*
X575100Y45296D02*
X575100Y58504D01*
D19*
X530800Y20000D03*
X429200Y20000D03*
D12*
X395400Y20000D03*
X344600Y20000D03*
D15*
X40000Y82500D03*
X40000Y117500D03*
X40000Y152500D03*
X40000Y187500D03*
D17*
X692000Y259200D03*
X692000Y360800D03*
D20*
X430000Y350800D03*
X430000Y249200D03*
D21*
X619200Y140000D03*
X720800Y140000D03*
X449200Y160000D03*
X550800Y160000D03*
D20*
X390000Y350800D03*
X390000Y249200D03*
D21*
X239200Y350000D03*
X340800Y350000D03*
D19*
X300800Y160000D03*
X199200Y160000D03*
X136800Y32000D03*
X35200Y32000D03*
D22*
X772380Y187300D02*
X787620Y187300D01*
X787620Y212700D02*
X772380Y212700D01*
X572700Y302380D02*
X572700Y317620D01*
X547300Y317620D02*
X547300Y302380D01*
X272700Y302380D02*
X272700Y317620D01*
X247300Y317620D02*
X247300Y302380D01*
X617300Y117620D02*
X617300Y102380D01*
X642700Y102380D02*
X642700Y117620D01*
X177300Y117620D02*
X177300Y102380D01*
X202700Y102380D02*
X202700Y117620D01*
X127620Y145400D02*
X112380Y145400D01*
X112380Y120000D02*
X127620Y120000D01*
X127620Y94600D02*
X112380Y94600D01*
X112380Y251900D02*
X127620Y251900D01*
X127620Y277300D02*
X112380Y277300D01*
X112380Y302700D02*
X127620Y302700D01*
X127620Y328100D02*
X112380Y328100D01*
M02*
